HIERARCHY
ROOT pelvis
{
	OFFSET 0.003123 -0.351407 0.012037
	CHANNELS 6 Xposition Yposition Zposition Zrotation Yrotation Xrotation 
	JOINT left_hip
	{
		OFFSET 0.058189 -0.092763 -0.026001
		CHANNELS 3 Zrotation Yrotation Xrotation
		JOINT left_knee
		{
			OFFSET 0.054695 -0.378753 -0.009396
			CHANNELS 3 Zrotation Yrotation Xrotation
			JOINT left_ankle
			{
				OFFSET -0.043453 -0.403059 -0.031876
				CHANNELS 3 Zrotation Yrotation Xrotation
				JOINT left_foot
				{
					OFFSET 0.047257 -0.057997 0.118216
					CHANNELS 3 Zrotation Yrotation Xrotation
					End Site
					{
						OFFSET 0.000000 0.000000 0.000000
					}
				}
			}
		}
	}
	JOINT right_hip
	{
		OFFSET -0.063267 -0.103908 -0.021250
		CHANNELS 3 Zrotation Yrotation Xrotation
		JOINT right_knee
		{
			OFFSET -0.044210 -0.362380 -0.016824
			CHANNELS 3 Zrotation Yrotation Xrotation
			JOINT right_ankle
			{
				OFFSET 0.015417 -0.410728 -0.020192
				CHANNELS 3 Zrotation Yrotation Xrotation
				JOINT right_foot
				{
					OFFSET -0.038812 -0.058328 0.119049
					CHANNELS 3 Zrotation Yrotation Xrotation
					End Site
					{
						OFFSET 0.000000 0.000000 0.000000
					}
				}
			}
		}
	}
	JOINT spine_1
	{
		OFFSET -0.002763 0.109891 -0.027618
		CHANNELS 3 Zrotation Yrotation Xrotation
		JOINT spine_2
		{
			OFFSET 0.009448 0.131853 -0.005940
			CHANNELS 3 Zrotation Yrotation Xrotation
			JOINT spine_3
			{
				OFFSET -0.011330 0.052235 0.028447
				CHANNELS 3 Zrotation Yrotation Xrotation
				JOINT neck
				{
					OFFSET -0.012164 0.165167 -0.031615
					CHANNELS 3 Zrotation Yrotation Xrotation
					JOINT head
					{
						OFFSET 0.024783 0.160452 0.020737
						CHANNELS 3 Zrotation Yrotation Xrotation
						End Site
						{
							OFFSET 0.000000 0.000000 0.000000
						}
					}
				}
				JOINT left_collar
				{
					OFFSET 0.046364 0.084944 -0.007220
					CHANNELS 3 Zrotation Yrotation Xrotation
					JOINT left_shoulder
					{
						OFFSET 0.119239 0.057728 -0.015461
						CHANNELS 3 Zrotation Yrotation Xrotation
						JOINT left_elbow
						{
							OFFSET 0.254123 -0.072151 -0.042459
							CHANNELS 3 Zrotation Yrotation Xrotation
							JOINT left_wrist
							{
								OFFSET 0.251987 0.023221 -0.002472
								CHANNELS 3 Zrotation Yrotation Xrotation
								JOINT left_index_1
								{
									OFFSET 0.101902 -0.008688 0.019351
									CHANNELS 3 Zrotation Yrotation Xrotation
									JOINT left_index_2
									{
										OFFSET 0.030149 -0.011154 0.001151
										CHANNELS 3 Zrotation Yrotation Xrotation
										JOINT left_index_3
										{
											OFFSET 0.006504 -0.021577 -0.002433
											CHANNELS 3 Zrotation Yrotation Xrotation
											End Site
											{
												OFFSET 0.000000 0.000000 0.000000
											}
										}
									}
								}
								JOINT left_middle_1
								{
									OFFSET 0.109398 -0.006328 -0.003981
									CHANNELS 3 Zrotation Yrotation Xrotation
									JOINT left_middle_2
									{
										OFFSET 0.026472 -0.015218 -0.004641
										CHANNELS 3 Zrotation Yrotation Xrotation
										JOINT left_middle_3
										{
											OFFSET 0.005022 -0.023347 -0.001911
											CHANNELS 3 Zrotation Yrotation Xrotation
											End Site
											{
												OFFSET 0.000000 0.000000 0.000000
											}
										}
									}
								}
								JOINT left_pinky_1
								{
									OFFSET 0.084047 -0.014539 -0.043750
									CHANNELS 3 Zrotation Yrotation Xrotation
									JOINT left_pinky_2
									{
										OFFSET 0.012124 -0.014448 -0.005375
										CHANNELS 3 Zrotation Yrotation Xrotation
										JOINT left_pinky_3
										{
											OFFSET 0.003798 -0.018853 0.000167
											CHANNELS 3 Zrotation Yrotation Xrotation
											End Site
											{
												OFFSET 0.000000 0.000000 0.000000
											}
										}
									}
								}
								JOINT left_ring_1
								{
									OFFSET 0.097444 -0.009268 -0.027345
									CHANNELS 3 Zrotation Yrotation Xrotation
									JOINT left_ring_2
									{
										OFFSET 0.023561 -0.016057 -0.001895
										CHANNELS 3 Zrotation Yrotation Xrotation
										JOINT left_ring_3
										{
											OFFSET 0.004257 -0.023548 0.000814
											CHANNELS 3 Zrotation Yrotation Xrotation
											End Site
											{
												OFFSET 0.000000 0.000000 0.000000
											}
										}
									}
								}
								JOINT left_thumb_1
								{
									OFFSET 0.040636 -0.017977 0.025611
									CHANNELS 3 Zrotation Yrotation Xrotation
									JOINT left_thumb_2
									{
										OFFSET 0.021637 -0.017639 0.011623
										CHANNELS 3 Zrotation Yrotation Xrotation
										JOINT left_thumb_3
										{
											OFFSET 0.024002 -0.008356 0.006548
											CHANNELS 3 Zrotation Yrotation Xrotation
											End Site
											{
												OFFSET 0.000000 0.000000 0.000000
											}
										}
									}
								}
							}
						}
					}
				}
				JOINT right_collar
				{
					OFFSET -0.047695 0.084339 -0.013400
					CHANNELS 3 Zrotation Yrotation Xrotation
					JOINT right_shoulder
					{
						OFFSET -0.102578 0.053524 -0.012669
						CHANNELS 3 Zrotation Yrotation Xrotation
						JOINT right_elbow
						{
							OFFSET -0.271150 -0.036492 -0.026467
							CHANNELS 3 Zrotation Yrotation Xrotation
							JOINT right_wrist
							{
								OFFSET -0.249267 -0.004533 -0.015325
								CHANNELS 3 Zrotation Yrotation Xrotation
								JOINT right_index_1
								{
									OFFSET -0.099881 -0.011783 0.019600
									CHANNELS 3 Zrotation Yrotation Xrotation
									JOINT right_index_2
									{
										OFFSET -0.030148 -0.011154 0.001151
										CHANNELS 3 Zrotation Yrotation Xrotation
										JOINT right_index_3
										{
											OFFSET -0.006505 -0.021577 -0.002432
											CHANNELS 3 Zrotation Yrotation Xrotation
											End Site
											{
												OFFSET 0.000000 0.000000 0.000000
											}
										}
									}
								}
								JOINT right_middle_1
								{
									OFFSET -0.107376 -0.009422 -0.003734
									CHANNELS 3 Zrotation Yrotation Xrotation
									JOINT right_middle_2
									{
										OFFSET -0.026472 -0.015218 -0.004641
										CHANNELS 3 Zrotation Yrotation Xrotation
										JOINT right_middle_3
										{
											OFFSET -0.005022 -0.023347 -0.001911
											CHANNELS 3 Zrotation Yrotation Xrotation
											End Site
											{
												OFFSET 0.000000 0.000000 0.000000
											}
										}
									}
								}
								JOINT right_pinky_1
								{
									OFFSET -0.082027 -0.017634 -0.043503
									CHANNELS 3 Zrotation Yrotation Xrotation
									JOINT right_pinky_2
									{
										OFFSET -0.012123 -0.014448 -0.005374
										CHANNELS 3 Zrotation Yrotation Xrotation
										JOINT right_pinky_3
										{
											OFFSET -0.003798 -0.018852 0.000167
											CHANNELS 3 Zrotation Yrotation Xrotation
											End Site
											{
												OFFSET 0.000000 0.000000 0.000000
											}
										}
									}
								}
								JOINT right_ring_1
								{
									OFFSET -0.095423 -0.012362 -0.027099
									CHANNELS 3 Zrotation Yrotation Xrotation
									JOINT right_ring_2
									{
										OFFSET -0.023561 -0.016057 -0.001895
										CHANNELS 3 Zrotation Yrotation Xrotation
										JOINT right_ring_3
										{
											OFFSET -0.004257 -0.023548 0.000816
											CHANNELS 3 Zrotation Yrotation Xrotation
											End Site
											{
												OFFSET 0.000000 0.000000 0.000000
											}
										}
									}
								}
								JOINT right_thumb_1
								{
									OFFSET -0.038613 -0.021074 0.025861
									CHANNELS 3 Zrotation Yrotation Xrotation
									JOINT right_thumb_2
									{
										OFFSET -0.021636 -0.017639 0.011623
										CHANNELS 3 Zrotation Yrotation Xrotation
										JOINT right_thumb_3
										{
											OFFSET -0.024004 -0.008353 0.006547
											CHANNELS 3 Zrotation Yrotation Xrotation
											End Site
											{
												OFFSET 0.000000 0.000000 0.000000
											}
										}
									}
								}
							}
						}
					}
				}
			}
		}
	}
}
MOTION
Frames: 7
Frame Time: 0.050000
-0.434341 0.989452 -0.124802 -148.267020 88.965745 -155.814142 -3.912773 -1.146007 13.743383 0.988156 -1.093421 -2.983943 9.576649 15.302044 22.407628 0.000000 0.000000 0.000000 -0.625853 -1.155614 1.552070 -1.555676 -3.015016 12.672630 16.574586 12.117290 10.506810 0.000000 0.000000 0.000000 -3.400357 0.243159 15.907385 -13.504838 1.617425 -14.884411 11.901461 26.008828 19.686758 2.288805 -0.627709 -0.378660 0.000000 0.000000 0.000000 -13.901610 -25.873518 -11.282295 -46.616994 17.115091 -13.739903 -11.378915 -19.014342 0.703005 4.302957 -3.879700 17.108531 -9.620558 4.480111 1.148709 24.718065 -1.628077 10.292870 0.000000 0.000000 0.000000 -6.012363 -5.508949 -3.904955 16.513457 -1.235511 10.230356 0.000000 0.000000 0.000000 24.657222 -18.756893 -11.344278 8.446582 0.722671 5.574021 0.000000 0.000000 0.000000 2.175948 -7.618597 -4.212643 14.164810 1.979358 15.514709 0.000000 0.000000 0.000000 16.665323 22.212234 19.221991 -7.775022 -12.725993 -1.307590 0.000000 0.000000 0.000000 10.002000 -12.154361 6.753207 48.345832 15.963158 12.953813 24.841205 72.263719 29.924873 -2.560289 6.501095 -7.612697 29.619725 -21.417592 1.598836 57.053356 -4.139887 4.389756 0.000000 0.000000 0.000000 44.371299 -5.307107 -2.119724 38.379447 9.029343 -15.681372 0.000000 0.000000 0.000000 7.906548 36.294439 -47.485098 27.570702 0.427290 0.530536 0.000000 0.000000 0.000000 39.632179 19.521747 -4.381466 37.661775 18.784369 -18.696242 0.000000 0.000000 0.000000 -19.592918 -38.748935 18.517462 -46.046594 23.401026 -56.108761 0.000000 0.000000 0.000000 
-0.434341 0.989452 -0.122162 -115.097152 88.407580 -122.668679 -3.230632 -1.374318 13.859672 1.728514 -0.904206 -2.562781 8.048960 14.666460 21.747413 0.000000 0.000000 0.000000 -0.753777 -1.138112 0.991322 -0.568472 -3.590277 13.234151 19.728678 14.083385 12.884641 0.000000 0.000000 0.000000 -3.844437 0.265790 15.911967 -12.614344 1.689531 -15.012105 12.722307 26.750033 20.477261 3.143834 -0.334874 -1.236761 0.000000 0.000000 0.000000 -14.562651 -26.930168 -11.475687 -46.168731 16.487717 -13.097783 -11.000359 -18.395522 0.623076 6.418677 -3.605686 18.901538 -13.746027 5.123070 0.741934 31.515709 -4.254487 2.898443 0.000000 0.000000 0.000000 -6.260415 -5.716633 -4.044866 13.563821 -0.714578 8.743961 0.000000 0.000000 0.000000 23.336034 -19.175324 -11.314993 6.745450 0.897747 3.133115 0.000000 0.000000 0.000000 1.321498 -8.034083 -4.397804 4.306454 1.801189 5.672449 0.000000 0.000000 0.000000 19.807520 22.866965 20.006815 -16.296602 -14.870520 1.597813 0.000000 0.000000 0.000000 10.519367 -13.428076 5.877199 48.081320 16.270855 13.049475 24.000162 72.977505 29.781506 -1.151245 4.317589 -8.093851 33.067980 -18.265420 1.135738 58.538085 -3.996906 4.552049 0.000000 0.000000 0.000000 47.036800 -1.631983 -2.695343 37.197903 8.055674 -13.716345 0.000000 0.000000 0.000000 8.981204 38.596570 -50.204587 10.260976 -3.430354 8.081645 0.000000 0.000000 0.000000 41.047034 22.329082 -4.961276 36.126066 16.730916 -16.248891 0.000000 0.000000 0.000000 -15.422227 -42.811514 21.393195 -55.267379 28.503435 -101.153310 0.000000 0.000000 0.000000 
-0.432457 0.989452 -0.127441 -100.649369 87.765377 -107.989012 -2.680825 -1.439742 13.396713 1.490578 -0.920629 -1.912062 7.941991 14.427988 21.210619 0.000000 0.000000 0.000000 -0.167178 -1.008564 0.910217 -1.141603 -3.579073 13.860964 20.947218 14.992248 11.674281 0.000000 0.000000 0.000000 -2.565772 0.120233 16.229789 -14.869209 1.679436 -15.493314 14.466260 25.463750 20.907046 1.592330 -0.348525 -1.318442 0.000000 0.000000 0.000000 -15.444446 -27.428023 -12.003316 -45.682141 16.561766 -12.376036 -9.289286 -17.522924 0.378970 4.600496 -3.790010 15.420213 -11.933959 6.599395 1.557918 23.749824 -3.134081 3.608439 0.000000 0.000000 0.000000 -9.201520 -3.465261 -3.522027 17.061961 -2.483675 2.591890 0.000000 0.000000 0.000000 20.513347 -21.298566 -14.581870 6.795240 0.951493 4.727117 0.000000 0.000000 0.000000 -1.496447 -10.143643 -5.738809 6.164147 3.006375 15.262253 0.000000 0.000000 0.000000 13.851292 21.360304 18.268626 -13.018520 -7.808811 2.119242 0.000000 0.000000 0.000000 9.852216 -13.241507 5.123113 47.356603 16.210612 13.013209 28.289197 72.857000 33.588131 -2.225177 4.483464 -9.939283 34.164716 -19.811420 0.619330 63.089760 -5.355203 6.414964 0.000000 0.000000 0.000000 50.536794 -1.786164 -2.542195 40.869880 9.056897 -14.186699 0.000000 0.000000 0.000000 8.868878 39.989014 -51.364311 17.198467 -4.611707 8.942107 0.000000 0.000000 0.000000 44.627338 23.169970 -4.011153 24.263534 19.256632 -24.333245 0.000000 0.000000 0.000000 -22.147834 -45.908523 22.504262 -45.911794 55.142364 -128.246092 0.000000 0.000000 0.000000 
-0.428688 0.990742 -0.130081 -64.585654 87.941746 -71.318578 -4.251065 -0.798913 12.808302 3.222981 -0.594511 -1.018432 7.019158 14.281617 21.117231 0.000000 0.000000 0.000000 -0.337914 -0.968069 -0.551944 -1.817445 -3.696722 15.228178 20.613653 14.952571 13.003712 0.000000 0.000000 0.000000 -4.988704 0.358819 14.999567 -12.009837 1.736715 -13.702187 12.371650 25.283278 19.665384 0.914938 -0.100305 -2.232755 0.000000 0.000000 0.000000 -15.746332 -25.297140 -12.517486 -45.480454 16.259838 -11.985754 -8.267051 -16.986089 0.294661 3.249942 -3.558495 14.013271 -7.919000 5.720306 1.783112 22.026358 -2.628188 3.993288 0.000000 0.000000 0.000000 -4.925753 -4.660961 -3.255298 15.084047 -2.012049 2.560084 0.000000 0.000000 0.000000 26.597849 -21.604154 -15.466903 -3.050995 2.714965 6.089759 0.000000 0.000000 0.000000 -2.626508 -6.049199 -3.603383 17.558620 -0.474718 0.284382 0.000000 0.000000 0.000000 16.242510 21.348984 18.037536 -7.111628 -12.469601 -1.513160 0.000000 0.000000 0.000000 10.628392 -12.318788 5.836557 45.885349 17.076644 11.607904 31.316448 72.883401 35.510770 -0.194510 5.288121 -9.479292 33.531775 -24.429707 0.445082 64.792373 -0.302849 -0.730949 0.000000 0.000000 0.000000 49.735709 1.102041 -3.091342 31.435821 11.994460 -21.602300 0.000000 0.000000 0.000000 6.108913 41.315026 -54.759688 10.171516 -8.334240 17.496477 0.000000 0.000000 0.000000 43.559609 26.163745 -5.481402 25.164648 16.630623 -18.648542 0.000000 0.000000 0.000000 -19.238506 -40.413042 18.163152 -47.519365 29.401252 -84.969186 0.000000 0.000000 0.000000 
-0.423035 0.991386 -0.132721 -69.205530 87.916243 -75.374581 -3.865486 -1.020537 13.391388 2.329842 -0.744825 -2.092157 7.665658 14.791252 21.736933 0.000000 0.000000 0.000000 -0.223381 -0.942203 -1.515116 -2.490174 -3.858971 16.360597 20.467006 14.743987 13.829257 0.000000 0.000000 0.000000 -3.895428 0.272698 15.586720 -14.544265 1.778566 -14.443050 11.979382 24.951557 19.299273 4.119752 0.113226 -2.500732 0.000000 0.000000 0.000000 -14.138771 -26.207686 -10.002101 -45.995057 13.741573 -12.596680 -7.388186 -16.424126 0.141498 3.887539 -2.026679 13.594763 -12.823718 4.561725 0.883861 32.100854 -4.125745 3.380764 0.000000 0.000000 0.000000 -9.420320 -5.620364 -4.570437 23.414336 -2.575125 10.085670 0.000000 0.000000 0.000000 17.892115 -21.468432 -15.583824 8.637957 1.987542 16.645840 0.000000 0.000000 0.000000 -2.563179 -7.598274 -4.432046 16.001632 0.041115 7.419834 0.000000 0.000000 0.000000 16.768211 21.452306 18.347085 -13.491749 -14.424865 0.576659 0.000000 0.000000 0.000000 12.269151 -13.603874 5.709979 44.879411 16.524403 10.342813 36.123894 72.130218 39.040957 -0.553884 8.317345 -8.647146 20.182971 -20.647131 2.938042 52.184084 -0.186958 0.605372 0.000000 0.000000 0.000000 32.945241 0.636678 -2.731965 48.840103 9.769687 -11.609539 0.000000 0.000000 0.000000 -0.801002 35.615324 -51.476631 10.021196 -2.890715 6.676558 0.000000 0.000000 0.000000 28.581814 22.986736 -8.639134 28.556262 17.888554 -20.318855 0.000000 0.000000 0.000000 -30.143230 -42.421593 25.790645 -11.447499 50.847058 -47.777160 0.000000 0.000000 0.000000 
-0.421150 0.991386 -0.132721 -69.460428 87.357973 -76.798284 -4.484651 -1.297361 15.201062 2.824735 -0.685470 -3.234628 9.166626 16.094170 24.793264 0.000000 0.000000 0.000000 0.509212 -0.771282 -1.426043 -3.449313 -4.326405 18.334457 20.609915 14.757163 15.027057 0.000000 0.000000 0.000000 -4.053117 0.089359 17.495673 -14.150508 1.883812 -15.308111 12.636513 25.680682 21.115522 4.199931 0.225816 -2.923395 0.000000 0.000000 0.000000 -13.771410 -26.861731 -9.299747 -45.519953 10.753119 -12.212004 -8.951291 -14.892703 0.344125 5.831633 -3.180382 14.599096 -9.347921 8.213801 2.337021 29.247550 -4.084648 2.289393 0.000000 0.000000 0.000000 -8.603652 -2.156676 -2.816075 19.566654 -3.066013 -0.532579 0.000000 0.000000 0.000000 16.943419 -19.591456 -12.118535 7.063978 0.975413 2.981991 0.000000 0.000000 0.000000 -2.070948 -9.157884 -5.095840 10.890730 0.645087 5.811198 0.000000 0.000000 0.000000 21.171759 20.728057 17.342287 -16.677732 -9.346197 3.158067 0.000000 0.000000 0.000000 12.537592 -14.336928 5.282982 44.896272 16.880522 10.685114 30.816358 73.777806 35.833217 -0.434631 5.688845 -10.176256 22.021615 -17.961734 2.251969 52.615466 -0.559477 2.310660 0.000000 0.000000 0.000000 34.332739 3.375183 -3.201489 43.873628 6.813217 -7.780602 0.000000 0.000000 0.000000 -0.434591 32.956146 -48.033300 14.227807 -2.574753 5.359236 0.000000 0.000000 0.000000 29.363474 21.886946 -7.829538 25.888339 14.794806 -17.017720 0.000000 0.000000 0.000000 -27.524597 -43.165934 26.299344 -16.223590 54.619611 -53.487047 0.000000 0.000000 0.000000 
-0.417381 0.992031 -0.135361 -78.413105 86.695571 -85.355975 -3.771275 -1.277482 14.137167 1.425594 -0.863242 -1.161341 10.407560 15.808291 22.966631 0.000000 0.000000 0.000000 1.997779 -0.495245 -2.364214 -5.020123 -4.689604 20.377389 19.744786 14.525656 13.856785 0.000000 0.000000 0.000000 -3.853848 0.150492 16.923011 -13.575762 1.827390 -14.991919 13.100481 25.775605 21.193592 3.883462 0.102846 -2.484456 0.000000 0.000000 0.000000 -14.289875 -27.488122 -9.642181 -44.437994 11.932685 -11.703893 -9.827537 -16.101734 0.490295 4.478418 -3.910057 12.163094 -12.605393 6.061749 1.375126 31.044975 -2.633512 10.333562 0.000000 0.000000 0.000000 -4.900916 -4.822057 -3.320771 9.940895 0.336319 8.257754 0.000000 0.000000 0.000000 22.702168 -18.956902 -11.406430 0.524808 1.174375 -1.289553 0.000000 0.000000 0.000000 1.614349 -7.924227 -4.360027 8.277061 1.347714 6.169649 0.000000 0.000000 0.000000 18.530511 24.107904 20.925205 -13.683989 -14.946792 0.417793 0.000000 0.000000 0.000000 11.684833 -14.416964 4.817784 45.160695 15.583600 10.739356 30.450972 73.565027 35.980324 -2.765807 5.322109 -11.293783 22.880085 -15.981078 2.000872 47.419744 -1.041517 4.197298 0.000000 0.000000 0.000000 35.501484 0.471236 -2.428951 35.509453 9.339618 -13.619537 0.000000 0.000000 0.000000 1.593327 29.971896 -42.221272 15.246564 0.436389 -0.399177 0.000000 0.000000 0.000000 31.351779 18.050345 -5.594890 31.304840 17.010716 -17.348848 0.000000 0.000000 0.000000 -25.575682 -39.790794 21.555340 -9.640684 37.427775 -34.605234 0.000000 0.000000 0.000000 
